<?xml version="1.0" standalone="no"?>
<!DOCTYPE svg PUBLIC "-//W3C//DTD SVG 20010904//EN"
 "http://www.w3.org/TR/2001/REC-SVG-20010904/DTD/svg10.dtd">
<svg version="1.0" xmlns="http://www.w3.org/2000/svg"
 width="225.000000pt" height="225.000000pt" viewBox="0 0 225.000000 225.000000"
 preserveAspectRatio="xMidYMid meet">
<metadata>
Created by potrace 1.16, written by Peter Selinger 2001-2019
</metadata>
<g transform="translate(0.000000,225.000000) scale(0.100000,-0.100000)"
fill="#000000" stroke="none">
<path d="M233 1895 c-30 -18 -49 -40 -65 -75 -17 -38 -29 -51 -51 -56 -40 -8
-94 -67 -107 -115 -18 -64 -4 -114 44 -164 53 -55 97 -66 173 -40 l54 19 105
-105 c86 -85 104 -109 104 -134 0 -16 5 -50 11 -74 9 -42 8 -46 -29 -100 -116
-166 -155 -331 -104 -443 l21 -48 -117 0 c-73 0 -126 -5 -141 -13 -80 -41 -86
-163 -9 -203 23 -12 186 -14 1038 -14 999 0 1012 0 1040 20 34 24 54 78 45
120 -3 16 -22 43 -41 60 l-35 30 -130 0 -131 0 58 63 c149 161 233 386 205
548 -27 150 -113 261 -256 329 -121 58 -180 71 -350 77 -137 4 -158 2 -248
-21 -54 -14 -150 -46 -213 -72 l-115 -46 -79 18 c-78 17 -80 18 -165 104 l-86
86 17 39 c23 55 15 124 -21 171 -38 49 -84 67 -154 60 -68 -7 -89 -8 -166 -1
-52 5 -65 2 -102 -20z m154 -91 c30 -30 27 -62 -12 -119 -14 -21 -25 -43 -25
-49 0 -6 50 -58 111 -116 l110 -105 -28 -27 -29 -28 -94 96 c-52 52 -104 100
-114 106 -15 8 -32 4 -77 -17 -51 -25 -61 -27 -87 -16 -36 15 -56 57 -46 95 8
32 57 66 94 66 35 0 50 17 50 57 0 75 93 111 147 57z m192 0 c28 -35 26 -70
-4 -110 -14 -18 -25 -41 -25 -51 0 -9 34 -52 76 -94 69 -69 74 -78 55 -84 -17
-5 -40 11 -120 85 l-99 92 20 46 c16 34 19 56 14 93 l-7 49 35 0 c25 0 40 -7
55 -26z m1156 -335 c158 -38 265 -111 314 -214 38 -77 41 -207 8 -303 -56
-162 -176 -319 -280 -368 l-52 -24 -595 0 c-566 0 -596 1 -624 19 -91 60 -95
184 -10 341 55 101 56 101 96 39 45 -70 150 -166 224 -204 52 -26 69 -30 144
-30 76 0 90 3 134 29 116 68 196 191 204 313 8 118 -40 211 -143 279 -30 21
-54 38 -53 40 2 1 37 16 79 33 198 78 373 94 554 50z m-797 -115 c135 -45 237
-130 262 -218 10 -37 9 -53 -5 -102 -52 -181 -199 -260 -346 -187 -168 83
-311 337 -255 454 40 85 180 107 344 53z m1209 -895 c6 -6 9 -18 6 -25 -8 -21
-1988 -21 -1996 0 -3 7 0 19 6 25 16 16 1968 16 1984 0z"/>
</g>
</svg>
